<?xml version="1.0" standalone="no"?>
<!DOCTYPE svg PUBLIC "-//W3C//DTD SVG 20010904//EN"
 "http://www.w3.org/TR/2001/REC-SVG-20010904/DTD/svg10.dtd">
<svg version="1.0" xmlns="http://www.w3.org/2000/svg"
 width="512.000000pt" height="512.000000pt" viewBox="0 0 512.000000 512.000000"
 preserveAspectRatio="xMidYMid meet">

<g transform="translate(0.000000,512.000000) scale(0.100000,-0.100000)"
fill="#000000" stroke="none">
<path d="M2893 5100 c-12 -5 -26 -18 -32 -29 -12 -21 -15 -238 -5 -266 11 -26
59 -46 88 -35 39 15 46 40 46 173 0 105 -3 126 -17 139 -25 22 -54 28 -80 18z"/>
<path d="M1370 5079 c-62 -25 -82 -62 -114 -211 -27 -127 -52 -188 -96 -235
-74 -78 -133 -106 -297 -137 -50 -10 -105 -27 -122 -37 -93 -56 -93 -191 -1
-248 17 -10 81 -28 143 -41 136 -27 198 -55 259 -116 61 -61 85 -113 115 -254
13 -63 32 -128 41 -144 53 -91 182 -99 244 -15 10 13 30 78 44 144 30 146 58
210 117 269 62 61 111 84 246 112 149 32 180 47 209 104 27 53 24 105 -10 153
-27 38 -61 51 -204 82 -133 28 -205 64 -260 131 -48 58 -70 113 -98 249 -14
66 -34 131 -44 144 -38 51 -113 73 -172 50z m84 -256 c31 -140 70 -224 138
-295 88 -91 168 -132 321 -163 109 -22 120 -26 114 -31 -3 -3 -55 -16 -116
-29 -145 -31 -227 -71 -306 -150 -81 -80 -118 -158 -152 -313 -15 -67 -29
-120 -31 -117 -2 2 -14 54 -27 115 -37 173 -94 277 -196 354 -84 65 -151 90
-331 126 -32 6 -58 13 -58 15 0 2 26 9 58 15 200 40 286 78 376 168 72 72 120
167 146 292 27 130 32 147 36 135 2 -5 14 -61 28 -122z"/>
<path d="M2523 4730 c-45 -19 -57 -84 -22 -116 18 -17 37 -19 151 -19 124 0
131 1 149 24 24 30 24 62 0 92 -18 22 -27 24 -138 26 -65 2 -128 -1 -140 -7z"/>
<path d="M3063 4726 c-56 -25 -57 -93 -1 -122 24 -12 55 -15 143 -12 129 3
155 16 155 73 0 57 -26 70 -154 73 -80 1 -120 -2 -143 -12z"/>
<path d="M2870 4540 c-18 -18 -20 -33 -20 -145 0 -120 1 -127 25 -150 30 -30
54 -31 89 -4 26 20 26 22 26 150 0 116 -2 131 -20 149 -11 11 -33 20 -50 20
-17 0 -39 -9 -50 -20z"/>
<path d="M3580 4208 c-55 -38 -68 -66 -100 -218 -35 -172 -70 -248 -145 -319
-82 -77 -126 -96 -315 -136 -144 -30 -161 -36 -193 -75 -54 -64 -54 -146 0
-211 32 -38 49 -44 193 -74 63 -13 129 -29 147 -34 102 -30 208 -123 258 -225
14 -29 39 -117 56 -197 32 -154 41 -174 91 -212 59 -43 134 -42 192 4 40 32
53 65 85 218 33 159 67 233 138 304 71 71 145 105 304 138 164 34 190 46 224
99 49 77 22 185 -55 225 -16 8 -92 28 -169 44 -153 32 -230 66 -295 129 -85
82 -120 161 -157 347 -23 121 -44 164 -93 194 -47 29 -122 28 -166 -1z m110
-175 c51 -255 92 -352 192 -452 101 -101 188 -143 378 -181 139 -29 140 -29
140 -45 0 -16 -1 -16 -140 -45 -190 -38 -280 -82 -378 -180 -58 -59 -123 -164
-143 -233 -8 -27 -59 -263 -59 -273 0 -2 -7 -4 -15 -4 -8 0 -17 10 -20 23 -3
12 -16 72 -29 132 -40 184 -87 277 -187 371 -95 89 -182 129 -357 164 -141 29
-142 29 -142 45 0 8 10 17 23 20 12 3 76 16 142 31 148 32 246 78 328 153 108
100 158 201 196 396 27 135 27 135 45 135 10 0 18 -19 26 -57z"/>
<path d="M510 3866 c-30 -7 -69 -19 -86 -28 -46 -25 -109 -99 -130 -154 -18
-47 -19 -99 -19 -1614 l0 -1565 23 -46 c31 -64 85 -117 151 -148 l56 -26 993
-3 992 -3 0 -59 0 -60 -840 0 c-602 0 -846 -3 -864 -11 -51 -23 -55 -103 -7
-128 14 -8 638 -11 2049 -11 2226 0 2082 -4 2169 60 56 41 99 112 113 185 8
43 10 459 8 1481 -3 1382 -4 1422 -22 1443 -28 31 -79 28 -105 -5 l-21 -27 0
-1436 c0 -1379 -1 -1438 -19 -1471 -10 -19 -30 -44 -45 -55 -27 -20 -39 -20
-1152 -23 l-1124 -2 0 60 0 59 993 3 992 3 56 26 c66 31 120 84 151 148 l23
46 0 1565 c0 1515 -1 1567 -19 1614 -22 58 -85 130 -136 156 -20 10 -62 23
-95 29 -76 14 -492 14 -532 1 -61 -22 -69 -96 -13 -125 24 -12 76 -15 287 -15
240 0 260 -1 291 -20 18 -11 41 -34 52 -52 20 -33 20 -54 20 -1424 l0 -1391
-22 -33 c-13 -18 -36 -43 -51 -54 -28 -21 -36 -21 -870 -26 -790 -5 -845 -6
-892 -24 -75 -28 -116 -50 -173 -95 -28 -23 -54 -41 -57 -41 -3 0 -5 624 -5
1388 0 1508 -1 1471 56 1567 34 59 106 130 157 156 76 39 127 49 264 49 145 0
178 7 194 44 18 40 3 75 -39 93 -30 13 -62 15 -172 10 -145 -7 -222 -22 -298
-61 -68 -34 -151 -106 -192 -165 -19 -27 -37 -50 -40 -50 -3 0 -21 23 -40 50
-41 59 -124 131 -192 165 -96 49 -156 58 -384 58 -195 1 -213 -1 -233 -18 -28
-25 -28 -77 0 -102 19 -17 43 -20 243 -25 121 -3 235 -10 251 -16 95 -33 179
-101 229 -188 57 -96 56 -59 56 -1567 0 -764 -2 -1388 -5 -1388 -3 0 -29 18
-57 41 -57 45 -98 67 -173 95 -47 18 -102 19 -892 24 -834 5 -842 5 -870 26
-15 11 -38 36 -50 54 l-23 33 0 1391 c0 1370 0 1391 20 1424 11 18 34 41 52
52 31 19 51 20 325 20 166 0 303 4 317 10 59 22 59 101 1 126 -45 18 -541 19
-625 0z m-40 -3261 c36 -13 155 -15 824 -15 487 0 805 -4 846 -10 36 -6 89
-23 118 -37 55 -28 132 -88 132 -104 0 -5 -366 -9 -922 -9 -904 0 -922 0 -962
20 -54 27 -78 62 -84 122 -2 26 -2 48 0 48 3 0 25 -7 48 -15z m4228 -33 c-6
-60 -30 -95 -84 -122 -40 -20 -58 -20 -962 -20 -556 0 -922 4 -922 9 0 16 77
76 134 105 29 15 82 31 117 36 35 5 417 10 849 11 633 0 792 3 820 14 52 20
53 19 48 -33z"/>
<path d="M24 3179 c-18 -21 -19 -61 -22 -1443 -2 -1022 0 -1438 8 -1481 21
-110 100 -199 204 -230 51 -15 347 -22 381 -9 44 17 48 111 7 130 -9 4 -94 10
-189 13 -191 7 -207 12 -244 81 -18 33 -19 92 -19 1471 l0 1436 -21 27 c-26
33 -77 36 -105 5z"/>
<path d="M783 3170 c-44 -18 -54 -78 -17 -114 14 -14 88 -16 663 -16 615 0
649 1 664 18 26 29 22 77 -9 101 -26 21 -34 21 -653 20 -344 0 -636 -4 -648
-9z"/>
<path d="M780 2797 c-53 -27 -49 -106 6 -127 15 -6 266 -10 648 -10 615 0 624
0 650 21 33 26 36 77 5 105 -20 18 -48 19 -653 21 -494 2 -636 0 -656 -10z"/>
<path d="M3108 2799 c-52 -20 -54 -104 -2 -128 31 -14 203 -15 239 -1 57 22
52 109 -7 129 -38 13 -193 13 -230 0z"/>
<path d="M3993 2800 c-45 -18 -57 -84 -22 -116 19 -17 41 -19 208 -22 113 -2
197 1 214 7 59 23 55 109 -5 130 -37 13 -363 14 -395 1z"/>
<path d="M784 2426 c-50 -22 -60 -78 -21 -114 l23 -22 638 0 c397 0 644 4 656
10 47 25 41 101 -10 127 -38 19 -1242 18 -1286 -1z"/>
<path d="M3115 2430 c-52 -20 -66 -89 -26 -122 22 -17 56 -18 663 -18 l639 0
24 25 c14 13 25 31 25 39 0 31 -24 65 -53 76 -36 12 -1241 13 -1272 0z"/>
<path d="M760 2040 c-26 -26 -26 -70 0 -98 21 -22 23 -22 405 -22 l384 0 20
26 c12 15 21 34 21 44 0 10 -9 29 -21 44 l-20 26 -385 0 c-371 0 -385 -1 -404
-20z"/>
<path d="M1722 2044 c-29 -20 -30 -76 -2 -104 18 -18 33 -20 188 -20 157 0
170 1 187 20 23 26 23 74 0 100 -17 19 -30 20 -184 20 -135 0 -171 -3 -189
-16z"/>
<path d="M3085 2040 c-10 -11 -18 -34 -18 -50 0 -16 8 -39 18 -50 18 -20 29
-20 666 -20 l648 0 20 26 c27 34 27 64 1 92 l-21 22 -648 0 c-637 0 -648 0
-666 -20z"/>
<path d="M762 1667 c-44 -46 -17 -110 50 -122 18 -3 309 -5 645 -3 l612 3 22
22 c29 29 28 81 -2 105 -20 17 -66 18 -663 18 l-643 0 -21 -23z"/>
<path d="M3097 1679 c-49 -29 -40 -109 15 -128 40 -14 186 -14 225 -1 28 10
53 45 53 74 0 7 -9 25 -21 40 -20 25 -23 26 -137 26 -64 0 -125 -5 -135 -11z"/>
<path d="M3520 1670 c-30 -30 -30 -73 1 -105 19 -19 35 -20 417 -23 218 -2
412 0 430 3 38 7 72 40 72 71 0 12 -9 33 -21 48 l-20 26 -430 0 c-416 0 -430
-1 -449 -20z"/>
<path d="M766 1299 c-31 -25 -34 -66 -7 -100 l19 -24 634 -3 c449 -2 641 1
660 9 35 14 50 56 33 96 -7 16 -20 33 -30 37 -9 3 -301 6 -649 6 -626 0 -634
0 -660 -21z"/>
<path d="M3097 1309 c-47 -28 -40 -107 11 -128 19 -8 214 -11 660 -9 l634 3
19 24 c26 32 24 67 -6 96 l-24 25 -638 0 c-427 -1 -644 -4 -656 -11z"/>
</g>
</svg>
